<svg width="24.000000" height="24.000000" viewBox="0 0 24 24" fill="none" xmlns="http://www.w3.org/2000/svg" xmlns:xlink="http://www.w3.org/1999/xlink">
	<desc>
			Created with Pixso.
	</desc>
	<defs>
		<clipPath id="clip16_11387">
			<rect id="Icon" rx="0.000000" width="23.000000" height="23.000000" transform="translate(0.500000 0.500000)" fill="white" fill-opacity="0"/>
		</clipPath>
	</defs>
	<g clip-path="url(#clip16_11387)">
		<path id="Vector 431 (Stroke)" d="M8.25 3.75L19.5 3.75C19.69 3.75 19.88 3.82 20.03 3.96C20.17 4.11 20.25 4.3 20.25 4.5L20.25 15.75C20.25 16.16 19.91 16.5 19.5 16.5C19.08 16.5 18.75 16.16 18.75 15.75L18.75 6.31L5.03 20.03C4.73 20.32 4.26 20.32 3.96 20.03C3.67 19.73 3.67 19.26 3.96 18.96L17.68 5.25L8.25 5.25C7.83 5.25 7.5 4.91 7.5 4.5C7.5 4.08 7.83 3.75 8.25 3.75Z" fill="#FFD11A" fill-opacity="1.000000" fill-rule="evenodd"/>
	</g>
</svg>
